<?xml version="1.0" encoding="UTF-8" standalone="no"?>
<!-- Generator: Adobe Illustrator 16.0.0, SVG Export Plug-In . SVG Version: 6.00 Build 0)  -->

<svg
   xmlns:dc="http://purl.org/dc/elements/1.1/"
   xmlns:cc="http://creativecommons.org/ns#"
   xmlns:rdf="http://www.w3.org/1999/02/22-rdf-syntax-ns#"
   xmlns:svg="http://www.w3.org/2000/svg"
   xmlns="http://www.w3.org/2000/svg"
   xmlns:sodipodi="http://sodipodi.sourceforge.net/DTD/sodipodi-0.dtd"
   xmlns:inkscape="http://www.inkscape.org/namespaces/inkscape"
   version="1.1"
   id="Capa_1"
   x="0px"
   y="0px"
   width="512px"
   height="512px"
   viewBox="0 0 910.812 910.812"
   style="enable-background:new 0 0 910.812 910.812;"
   xml:space="preserve"
   inkscape:version="0.91 r13725"
   sodipodi:docname="cv-icon.svg"><metadata
     id="metadata47"><rdf:RDF><cc:Work
         rdf:about=""><dc:format>image/svg+xml</dc:format><dc:type
           rdf:resource="http://purl.org/dc/dcmitype/StillImage" /></cc:Work></rdf:RDF></metadata><defs
     id="defs45" /><sodipodi:namedview
     pagecolor="#ffffff"
     bordercolor="#666666"
     borderopacity="1"
     objecttolerance="10"
     gridtolerance="10"
     guidetolerance="10"
     inkscape:pageopacity="0"
     inkscape:pageshadow="2"
     inkscape:window-width="1280"
     inkscape:window-height="657"
     id="namedview43"
     showgrid="false"
     inkscape:zoom="0.4609375"
     inkscape:cx="256"
     inkscape:cy="256"
     inkscape:window-x="-8"
     inkscape:window-y="1072"
     inkscape:window-maximized="1"
     inkscape:current-layer="Capa_1" /><g
     id="g3"
     transform="translate(-123.49993,0)"><g
       id="g5"><g
         id="g7"><path
           d="m 122.483,50 0,810.812 c 0,27.613 22.386,50 50,50 l 383.655,0 0,-152.109 -332.568,0 c -8.284,0 -15,-6.717 -15,-15 0,-8.285 6.716,-15 15,-15 l 333.404,0 c 4.744,-28.377 29.462,-50.076 59.164,-50.076 l 172.183,0 0,-628.627 c 0,-27.614 -22.386,-50 -50,-50 L 172.483,0 c -27.615,0 -50,22.386 -50,50 z m 392.174,44.062 42.478,151.899 c 9.694,34.166 16.621,63.715 26.777,98.342 l 1.848,0 c 10.156,-34.627 17.082,-64.176 26.316,-98.342 l 42.016,-151.899 54.941,0 -93.725,301.952 -63.253,0 -94.187,-301.952 56.789,0 z m -156.048,-5.54 c 36.475,0 66.947,18.006 85.877,38.321 l -30.011,33.243 c -15.236,-15.236 -32.319,-24.932 -55.404,-24.932 -49.864,0 -84.953,41.553 -84.953,109.423 0,68.794 32.319,110.347 83.106,110.347 26.777,0 46.17,-11.081 63.253,-30.011 l 30.01,32.781 c -24.47,28.164 -56.327,43.862 -94.187,43.862 -77.104,0 -137.125,-55.404 -137.125,-155.593 10e-4,-98.805 61.868,-157.441 139.434,-157.441 z m -135.039,383.105 463.664,0 c 8.284,0 15,6.717 15,15 0,8.283 -6.716,15 -15,15 l -463.664,0 c -8.284,0 -15,-6.717 -15,-15 0,-8.283 6.715,-15 15,-15 z m 0,133.082 463.664,0 c 8.284,0 15,6.717 15,15 0,8.285 -6.716,15 -15,15 l -463.664,0 c -8.284,0 -15,-6.715 -15,-15 0,-8.283 6.715,-15 15,-15 z"
           id="path9"
           inkscape:connector-curvature="0"
           style="fill:#0397d6" /><path
           d="m 783.624,708.627 -167.485,0 c -16.569,0 -30,13.432 -30,30 l 0,167.508 0,4.678 202.19,-202.186 -4.705,0 0,0 z"
           id="path11"
           inkscape:connector-curvature="0"
           style="fill:#0397d6" /></g></g></g><g
     id="g13"
     transform="translate(-123.49993,0)" /><g
     id="g15"
     transform="translate(-123.49993,0)" /><g
     id="g17"
     transform="translate(-123.49993,0)" /><g
     id="g19"
     transform="translate(-123.49993,0)" /><g
     id="g21"
     transform="translate(-123.49993,0)" /><g
     id="g23"
     transform="translate(-123.49993,0)" /><g
     id="g25"
     transform="translate(-123.49993,0)" /><g
     id="g27"
     transform="translate(-123.49993,0)" /><g
     id="g29"
     transform="translate(-123.49993,0)" /><g
     id="g31"
     transform="translate(-123.49993,0)" /><g
     id="g33"
     transform="translate(-123.49993,0)" /><g
     id="g35"
     transform="translate(-123.49993,0)" /><g
     id="g37"
     transform="translate(-123.49993,0)" /><g
     id="g39"
     transform="translate(-123.49993,0)" /><g
     id="g41"
     transform="translate(-123.49993,0)" /><path
     style="fill:#000080"
     d="M 23.888839,901.4506 C -1.2053252,886.15108 -6.799947e-7,908.63705 -6.799947e-7,455.79194 -6.799947e-7,2.9468428 -1.2053252,25.432794 23.888839,10.133303 36.40842,2.5003241 42.571557,2.3444769 331.90607,2.3444769 c 289.33452,0 295.49764,0.1558449 308.01725,7.7888261 24.76613,15.099513 23.88882,2.209742 23.88882,350.980037 l 0,316.59254 -93.5898,0.0633 c -89.74547,0.061 -94.21651,0.41847 -108.84698,8.70525 -9.93486,5.62716 -18.01122,14.35594 -23.15206,25.02244 l -7.89489,16.38086 -168.37916,0 c -181.646619,0 -179.255204,-0.27169 -176.374458,20.04929 l 1.261101,8.89602 172.706927,1.00459 172.70695,1.00455 0,75.21805 0,75.21803 -197.79287,-0.016 C 42.877223,909.23739 36.262739,908.99385 23.888839,901.44959 l 0,0.001 z M 574.87026,629.67615 c 2.54549,-3.06713 4.06069,-9.57982 3.36707,-14.47266 l -1.26108,-8.896 -245.07018,0 -245.070177,0 -1.261101,8.896 c -2.937138,20.71901 -11.165559,20.0493 246.331278,20.0493 203.11095,0 239.02004,-0.82421 242.96419,-5.57664 z m -0.59557,-130.2733 c 5.95308,-5.95308 5.95308,-19.51877 0,-25.47186 -6.69116,-6.69114 -478.046066,-6.69114 -484.737243,0 -5.953082,5.95309 -5.953082,19.51878 0,25.47186 6.691177,6.69116 478.046083,6.69116 484.737243,0 z M 286.40736,390.54329 c 11.37592,-5.38165 25.7416,-15.06437 31.92373,-21.51711 l 11.24024,-11.73229 -16.97919,-17.30052 -16.97917,-17.30052 -9.83391,9.41906 c -22.18907,21.25305 -55.41716,26.82612 -83.61001,14.02321 -31.70361,-14.39718 -48.25543,-48.86851 -48.34222,-100.679 -0.0608,-36.36302 6.29584,-59.16646 22.36717,-80.23705 23.96573,-31.4207 77.08507,-37.21014 104.63306,-11.40389 l 8.74126,8.18859 15.37981,-15.01799 c 8.4589,-8.25989 15.37983,-17.2597 15.37983,-19.99958 0,-8.10548 -30.67432,-27.912291 -53.50628,-34.549724 -27.93965,-8.122281 -62.67703,-5.27078 -90.39866,7.420599 C 104.99985,132.55569 74.650687,230.52705 108.1822,320.14807 c 25.70578,68.70483 110.7737,102.30488 178.22516,70.39522 z m 212.87173,-12.90364 c 15.64848,-48.6244 87.34559,-281.735383 87.34559,-283.989438 0,-1.412956 -12.78476,-2.569011 -28.41054,-2.569011 l -28.41054,0 -15.85172,56.925749 c -8.71845,31.30916 -24.13969,87.79959 -34.26937,125.53428 -10.12975,37.7347 -18.75795,67.2589 -19.17388,65.60933 -0.41588,-1.64954 -15.94739,-58.20727 -34.5144,-125.68383 l -33.75825,-122.684649 -29.2001,1.114405 c -16.58071,0.63279 -28.99088,2.782306 -28.71595,4.973773 0.26629,2.122657 21.10692,70.266211 46.31246,151.430131 l 45.82831,147.57078 33.45934,0.0502 33.45937,0.0502 5.89968,-18.33201 0,1.6e-4 z"
     id="path3375"
     inkscape:connector-curvature="0" /><path
     style="fill:#000080"
     d="m 463.12474,820.02993 c 0,-119.9248 -7.98896,-112.47831 118.70921,-110.64854 l 78.18579,1.12916 -98.4475,98.38563 -98.4475,98.38563 0,-87.25188 z"
     id="path3377"
     inkscape:connector-curvature="0" /><path
     style="fill:#0044aa"
     d="M 39.050847,509.0219 C 14.017907,507.57612 9.7764322,506.35112 6.037517,499.48713 2.0704564,492.2043 0.31180127,417.4838 0.31180127,256.21695 0.31180127,95.349359 2.0733006,20.223944 6.0148745,12.989072 11.804451,2.3621376 11.388087,2.3864407 187.66102,2.3864407 c 159.55043,0 165.10711,0.136576 171.86417,4.2241777 3.84054,2.3232976 7.62276,5.7402466 8.40493,7.5932206 3.14535,7.451437 4.94996,86.601961 5.08264,222.925711 l 0.13978,143.62444 -54.77966,0.64674 c -53.41039,0.63056 -54.95712,0.77332 -61.87962,5.71078 -3.90498,2.78523 -9.05026,8.88693 -11.43392,13.55932 l -4.33397,8.49527 -92.30192,0 c -59.477233,0 -93.794243,0.79868 -96.498278,2.24582 -2.700232,1.44512 -4.196358,4.53907 -4.196358,8.67796 l 0,6.43215 97.627116,0 97.62712,0 0,42.30509 0,42.30508 -90.57627,-0.39734 C 102.58983,510.51633 51.579661,509.74551 39.050847,509.0219 Z M 321.22737,354.85249 c 2.70023,-1.44512 4.19636,-4.53907 4.19636,-8.67797 l 0,-6.43215 -138.84746,0 -138.847456,0 0,6.57838 c 0,4.79436 1.323808,7.11051 4.881355,8.54046 7.055235,2.83585 263.317611,2.82752 268.617201,-0.009 l 0,-4e-5 z m 0,-73.76271 c 2.38115,-1.27436 4.19636,-4.52593 4.19636,-7.5169 0,-2.99097 -1.81521,-6.24254 -4.19636,-7.5169 -2.7592,-1.47666 -48.87416,-2.24581 -134.6511,-2.24581 -85.77694,0 -131.8919,0.76915 -134.651098,2.24581 -5.251951,2.81078 -5.497014,11.96746 -0.399748,14.93635 5.2757,3.07282 263.967786,3.16628 269.701946,0.0974 l 0,4e-5 z M 159.71419,220.60603 c 6.10721,-2.6472 14.2846,-8.09462 18.17198,-12.10537 l 7.06796,-7.29229 -8.12824,-9.91944 c -4.47053,-5.45569 -8.5223,-9.91944 -9.00394,-9.91944 -0.48164,0 -5.84307,3.41695 -11.9143,7.59322 -9.28389,6.38619 -12.90774,7.59322 -22.79705,7.59322 -6.46714,0 -14.97298,-1.34312 -18.90187,-2.98471 C 104.7004,189.59838 94.402039,176.73554 90.793665,164.32536 86.512189,149.6002 87.044823,119.61103 91.808219,107.20233 101.95762,80.763058 134.31903,70.075097 155.90395,86.033523 l 6.84557,5.061144 8.65914,-8.455424 C 181.42108,72.862375 181.83158,70.928267 175.18644,64.839951 163.14763,53.809924 151.88519,50.127566 130.16949,50.121249 110.82898,50.115623 108.71931,50.570741 95.923595,57.509092 79.502251,66.413399 70.901196,75.758959 62.391545,93.943665 41.398706,138.80433 55.695829,197.63853 92.20339,216.6226 c 22.23117,11.56031 46.69981,13.00406 67.5108,3.98343 z M 304.2081,139.06441 c 14.00652,-45.342376 25.48623,-83.702086 25.51051,-85.243803 0.0332,-2.105179 -4.0929,-2.645357 -16.57117,-2.169492 l -16.61529,0.633631 -18.10505,66.169494 c -9.9578,36.39322 -18.38649,67.02516 -18.73042,68.07097 -0.34395,1.04582 -7.81546,-24.33723 -16.60338,-56.40678 C 234.30539,98.048887 225.76636,67.172881 224.11767,61.505085 L 221.12004,51.2 l -14.56002,0.03321 c -8.00801,0.01822 -15.67111,0.750475 -17.0291,1.627119 -2.3138,1.49366 3.10862,20.344855 42.44814,147.572056 l 6.90061,22.31714 19.93101,-0.62221 19.93101,-0.62224 25.46641,-82.44068 z"
     id="path3379"
     inkscape:connector-curvature="0"
     transform="scale(1.7789297,1.7789297)" /><path
     style="fill:#0055d4"
     d="m 260.43347,468.7833 c 0.10564,-46.0418 1.7641,-58.87044 8.29424,-64.15822 6.21717,-5.03436 25.74382,-6.39319 65.92818,-4.58785 l 34.18131,1.53565 -54.24911,54.19347 -54.24911,54.19348 0.0945,-41.17653 z"
     id="path3381"
     inkscape:connector-curvature="0"
     transform="scale(1.7789297,1.7789297)" /><path
     style="fill:#0055d4"
     d="m 27.804414,508.41587 c 2.220696,-0.99178 0.463041,-1.37528 -4.48238,-0.97801 -4.474576,0.35947 -8.135593,-0.18427 -8.135593,-1.20832 0,-1.02404 -0.802125,-1.36615 -1.782501,-0.76023 -0.980375,0.6059 -3.20252,-0.55682 -4.9381005,-2.58384 -4.7031968,-5.49294 -4.7987736,-6.01047 -4.1862901,-22.66852 0.2522659,-6.86102 -0.3837531,-12.47458 -1.4133758,-12.47458 -1.0370271,0 -1.8654924,-94.34977 -1.8573594,-211.52542 0.00808,-116.33898 0.8504936,-211.525425 1.8720412,-211.525425 1.0215476,0 1.544547,-5.613559 1.1622209,-12.474576 -0.3823262,-6.861017 0.073599,-13.694915 1.0131667,-15.186441 0.9395679,-1.491525 1.1245223,-2.711864 0.4110097,-2.711864 -0.7135123,0 0.7068219,-2.151167 3.1562984,-4.7803719 C 11.866628,6.0572383 15.181079,4.8995927 20.81769,5.2791986 c 4.257302,0.2867139 7.265851,-0.2468645 6.685666,-1.18573 -0.811414,-1.313045 303.146204,-1.2929711 325.581394,0.021502 2.68474,0.157299 4.88135,1.21578 4.88135,2.3521803 0,1.1364002 0.56949,1.4966907 1.26553,0.8006456 0.69606,-0.6960451 3.2786,0.7475239 5.73902,3.2079314 3.61346,3.613465 4.40019,6.915307 4.09234,17.175142 -0.20958,6.985919 0.3807,12.702447 1.31184,12.703395 0.93113,9.48e-4 2.05718,76.638235 2.50234,170.305085 l 0.80937,170.30336 -49.20461,0 c -60.8131,0 -64.55836,0.80371 -76.07515,16.32525 l -8.67797,11.69556 -90.03389,0.30754 c -49.51865,0.16922 -92.474581,0.98081 -95.457632,1.80368 -4.123648,1.13748 -5.586686,3.16578 -6.103556,8.46171 l -0.67983,6.96558 97.764578,0 97.76457,0 0,42.49592 0,42.49591 -109.41592,-0.7332 C 73.388366,510.37739 25.795146,509.31324 27.804414,508.41587 Z M 318.91525,355.16967 c 4.11644,-1.13551 5.58701,-3.16718 6.10114,-8.42908 l 0.67738,-6.93296 -139.1175,0 -139.117502,0 0.677396,7.00872 c 0.56169,5.81157 1.789114,7.24445 7.18587,8.38866 8.849716,1.87633 256.783596,1.84307 263.593216,-0.0354 l 0,2e-5 z m -5.42372,-73.65126 c 10.28705,-1.36281 10.84745,-1.7733 10.84745,-7.94553 0,-6.17222 -0.5604,-6.58271 -10.84745,-7.94552 -14.13932,-1.87316 -239.691206,-1.87316 -253.830513,0 -10.287056,1.36281 -10.847458,1.7733 -10.847458,7.94552 0,6.19234 0.526896,6.57096 10.847458,7.79477 15.044962,1.78401 240.491323,1.91791 253.830513,0.15078 l 0,-2e-5 z m -151.788,-63.17321 c 7.20135,-3.52876 15.39768,-8.86877 18.21407,-11.86669 l 5.12072,-5.45075 -8.05424,-9.82913 c -4.42983,-5.40603 -8.82259,-9.82914 -9.76168,-9.82914 -0.9391,0 -4.23043,2.33822 -7.31408,5.19605 -3.08364,2.85782 -6.15502,4.64765 -6.82527,3.9774 -0.67025,-0.67026 -1.21864,-0.022 -1.21864,1.44046 0,1.46251 -0.97627,2.05575 -2.16949,1.31829 -1.19323,-0.73745 -2.1695,-0.33757 -2.1695,0.88862 0,1.2262 -1.36565,1.70539 -3.03479,1.06489 -1.66913,-0.64051 -3.61595,-0.22423 -4.32626,0.92508 -0.82032,1.32731 -4.59457,1.34748 -10.34569,0.0553 -4.97982,-1.1189 -10.35504,-1.53519 -11.94493,-0.92509 -1.58988,0.61009 -2.8907,9.2e-4 -2.8907,-1.35372 0,-1.35464 -0.60085,-1.86214 -1.33522,-1.12776 -1.87411,1.87411 -15.270701,-12.75624 -18.630263,-20.34601 -1.533743,-3.46497 -3.584195,-6.29995 -4.556557,-6.29995 -0.972361,0 -1.164563,-0.97627 -0.427112,-2.16949 0.737452,-1.19322 0.652254,-3.28362 -0.189331,-4.64532 -1.874812,-3.0335 -1.73358,-39.97217 0.164577,-43.04344 0.751065,-1.21525 0.803897,-3.11836 0.117392,-4.22913 -0.686484,-1.11077 -0.240039,-2.64264 0.992108,-3.40414 1.232148,-0.76151 1.678592,-2.29338 0.992098,-3.40415 -0.686495,-1.11077 -0.156668,-2.01958 1.177394,-2.01958 1.334061,0 1.88542,-0.87398 1.225244,-1.94216 -0.660179,-1.0682 0.398208,-2.555581 2.351969,-3.30531 1.95376,-0.749728 2.927929,-1.987503 2.164821,-2.750613 -0.76311,-0.763108 1.53784,-3.166458 5.11321,-5.340774 3.57538,-2.174317 6.50069,-5.00154 6.50069,-6.28272 0,-1.281178 0.97627,-1.726047 2.16949,-0.988596 1.19322,0.737452 2.16949,0.337571 2.16949,-0.888619 0,-1.226193 1.46441,-1.667495 3.25424,-0.980671 1.78983,0.686822 3.25424,0.412114 3.25424,-0.610463 0,-1.022576 4.88135,-1.85923 10.84745,-1.85923 5.9661,0 10.84746,0.836654 10.84746,1.85923 0,1.022577 1.46441,1.297285 3.25424,0.610463 1.78983,-0.686824 3.25424,-0.513629 3.25424,0.384874 0,0.898504 3.0111,3.41235 6.69135,5.586324 l 6.69135,3.952681 6.5123,-6.196786 c 11.20054,-10.657896 11.74176,-13.359644 4.16099,-20.771261 -3.68504,-3.602801 -6.71501,-5.702502 -6.73328,-4.666001 -0.0182,1.036498 -0.84821,0.599298 -1.8443,-0.971557 -0.9961,-1.570855 -3.17776,-3.131874 -4.84814,-3.468928 -1.67038,-0.337054 -4.9896,-1.471084 -7.37604,-2.520064 -4.17508,-1.83519 -35.60992,-2.227981 -42.30508,-0.528618 -1.78983,0.454293 -7.64746,2.971275 -13.016951,5.593292 -28.542553,13.937833 -43.568078,42.219348 -43.502683,81.882117 0.01779,10.73898 0.441699,21.47796 0.942208,23.8644 3.153134,15.03427 15.68121,37.30346 25.630507,45.55933 22.840339,18.95276 54.565999,22.81324 81.006379,9.85706 z m 117.81055,2.61751 c -0.19265,-0.89491 0.74515,-4.27437 2.0841,-7.50989 1.33894,-3.23552 2.88074,-8.60502 3.42619,-11.9322 0.54543,-3.32719 1.19402,-6.2935 1.4413,-6.59181 0.24728,-0.2983 0.69365,-1.51864 0.99196,-2.71186 0.2983,-1.19322 0.78644,-2.65763 1.08474,-3.25424 0.29831,-0.59661 0.74622,-1.81695 0.99534,-2.71186 0.24915,-0.89492 1.61884,-4.44726 3.04376,-7.89411 1.42492,-3.44684 2.08379,-6.77396 1.46414,-7.3936 -0.61962,-0.61964 -0.0393,-2.43679 1.2897,-4.0381 1.32897,-1.60132 1.6891,-2.91148 0.80028,-2.91148 -0.88882,0 -0.40068,-1.46441 1.08475,-3.25424 1.48543,-1.78983 1.97356,-3.25424 1.08474,-3.25424 -0.88881,0 -0.40068,-1.4644 1.08475,-3.25423 1.48543,-1.78983 1.97357,-3.25424 1.08475,-3.25424 -0.88882,0 -0.58305,-1.24467 0.67948,-2.76593 1.26254,-1.52127 2.76621,-5.67042 3.3415,-9.22034 0.57526,-3.54993 1.12622,-6.69848 1.22435,-6.99678 0.0981,-0.29831 0.26142,-1.27458 0.36289,-2.16949 0.10153,-0.89492 1.19728,-2.84746 2.43512,-4.33899 1.23787,-1.49152 1.69279,-2.71186 1.01096,-2.71186 -0.68182,0 0.1881,-3.41695 1.93298,-7.59322 1.74494,-4.17627 2.55186,-7.59322 1.79315,-7.59322 -0.75874,0 -0.16423,-1.46441 1.32126,-3.25424 1.48543,-1.78983 1.97357,-3.25423 1.08475,-3.25423 -0.88882,0 -0.40069,-1.464412 1.08474,-3.254242 1.48543,-1.789831 2.14292,-3.254237 1.46109,-3.254237 -0.68183,0 0.1881,-3.41695 1.93297,-7.593221 1.74495,-4.176271 2.55187,-7.59322 1.79315,-7.59322 -0.75873,0 -0.16423,-1.464407 1.32127,-3.254237 1.48543,-1.789831 2.18865,-3.254238 1.5627,-3.254238 -0.62592,0 0.19721,-4.436751 1.82921,-9.859449 2.45025,-8.141551 2.46793,-10.051055 0.10153,-10.959126 -4.92047,-1.888163 -30.60226,0.09461 -30.79947,2.377897 -0.10305,1.193221 -0.82388,3.633899 -1.60186,5.423729 -0.77798,1.789831 -1.84144,5.694915 -2.36327,8.677966 -0.52183,2.983051 -1.17003,5.911865 -1.44044,6.508475 -0.27042,0.59661 -0.71849,2.061017 -0.99571,3.254237 -0.27724,1.19322 -0.69137,2.657627 -0.92029,3.254237 -0.22895,0.596611 -0.82968,2.793221 -1.335,4.881356 l -1.83752,7.593221 c -0.50531,2.088135 -1.14215,4.284745 -1.41518,4.881356 -0.27305,0.59661 -0.72326,2.061016 -1.00048,3.254236 -0.27724,1.19322 -0.69137,2.65763 -0.9203,3.25424 -0.41682,1.08624 -1.72451,6.29932 -2.85713,11.38983 -0.33187,1.49152 -1.4059,3.99715 -2.38675,5.56807 -0.98082,1.57091 -1.20591,3.43362 -0.50017,4.13937 0.70573,0.70574 0.1959,2.59333 -1.13315,4.19464 -1.32897,1.60131 -1.6891,2.91148 -0.80028,2.91148 0.88882,0 0.38109,1.488 -1.12827,3.30666 -1.50936,1.81867 -2.12549,3.92545 -1.36921,4.68175 0.75631,0.75629 0.26817,2.70883 -1.08474,4.33898 -1.3529,1.63015 -1.84103,3.58269 -1.08475,4.33898 0.75631,0.75629 0.28774,2.68525 -1.04122,4.28656 -1.32897,1.60131 -1.68911,2.91147 -0.80029,2.91147 0.88882,0 0.3811,1.488 -1.12826,3.30667 -1.50936,1.81867 -2.1255,3.92545 -1.36921,4.68174 0.7563,0.75629 0.40838,2.53989 -0.77317,3.96355 -1.18152,1.42366 -2.36225,5.1745 -2.62384,8.33521 -0.49634,5.99705 -3.86823,8.16974 -3.86823,2.4925 0,-1.78983 -0.94564,-3.25424 -2.10141,-3.25424 -1.15575,0 -1.57735,-1.36566 -0.93683,-3.03479 0.6405,-1.66914 0.10587,-3.68914 -1.18823,-4.4889 -1.29404,-0.79975 -1.84173,-2.28098 -1.21713,-3.29162 0.62462,-1.01064 1.7e-4,-4.6042 -1.38765,-7.98569 -1.38782,-3.38148 -2.7105,-7.12443 -2.93931,-8.31765 -0.2288,-1.19322 -0.63725,-2.65762 -0.90768,-3.25423 -0.2704,-0.59661 -0.9186,-3.52543 -1.44043,-6.50848 -0.52183,-2.98305 -1.57301,-6.88813 -2.33596,-8.67796 -1.44898,-3.39923 -2.2828,-6.1221 -3.82006,-12.47458 -0.50532,-2.08814 -1.10605,-4.28475 -1.335,-4.88136 -0.22892,-0.59661 -0.64305,-2.06101 -0.92029,-3.25423 -0.27722,-1.19322 -0.72743,-2.65763 -1.00049,-3.25424 -0.27303,-0.59661 -0.94568,-3.03729 -1.49478,-5.42373 -1.31898,-5.732405 -2.57855,-10.591776 -3.09291,-11.932203 -0.22892,-0.59661 -0.64306,-2.061016 -0.9203,-3.254237 -0.27722,-1.19322 -0.72743,-2.657627 -1.00048,-3.254237 -0.27303,-0.59661 -0.94568,-3.037288 -1.49478,-5.423729 -1.68826,-7.337353 -2.66181,-10.847458 -3.00865,-10.847458 -0.31601,0 -1.53821,-4.857853 -3.0021,-11.932203 -0.51567,-2.492073 -4.31323,-3.32403 -16.21457,-3.552236 -8.54765,-0.163906 -16.09838,0.603561 -16.7794,1.705467 -0.68101,1.101907 1.85292,12.19532 5.63095,24.652032 3.77804,12.456711 7.1997,24.380774 7.60369,26.497924 0.40399,2.11714 0.93126,4.09342 1.17171,4.39173 0.24045,0.2983 0.68124,1.51864 0.97955,2.71186 0.2983,1.19322 0.7391,2.41356 0.97955,2.71187 0.24045,0.2983 0.85061,2.25084 1.35593,4.33898 l 1.83751,7.59322 c 0.50532,2.08814 1.11549,4.04068 1.35593,4.33898 0.24045,0.29831 0.68125,1.51865 0.97955,2.71187 0.29831,1.19322 0.78644,2.65763 1.08475,3.25424 0.2983,0.59661 0.78644,2.06101 1.08475,3.25423 0.2983,1.19322 0.73695,2.41356 0.97477,2.71187 0.23782,0.2983 0.85936,2.98305 1.38118,5.9661 0.52183,2.98305 1.5853,6.88813 2.36328,8.67796 0.77797,1.78984 1.62084,3.98645 1.87305,4.88136 0.25222,0.89492 0.70263,2.11525 1.00094,2.71187 0.2983,0.59661 0.78644,2.06101 1.08474,3.25423 0.29831,1.19322 0.74468,2.41356 0.99196,2.71187 0.24728,0.2983 0.92027,3.44685 1.49554,6.99677 0.57528,3.54993 2.07896,7.69908 3.34149,9.22034 1.26254,1.52127 1.5683,2.76594 0.67949,2.76594 -0.88882,0 -0.40069,1.4644 1.08474,3.25423 1.48543,1.78984 1.97357,3.25424 1.08475,3.25424 -0.88882,0 -0.40069,1.46441 1.08474,3.25424 1.48543,1.78983 1.97357,3.25424 1.08475,3.25424 -0.88882,0 -0.52868,1.31016 0.80028,2.91147 1.32897,1.60132 1.90933,3.41846 1.2897,4.0381 -0.61965,0.61965 -0.14731,3.7027 1.04986,6.85123 2.14185,5.63348 2.5055,5.72462 22.84036,5.72462 11.36512,0 20.50621,-0.7322 20.31354,-1.62712 z"
     id="path3383"
     inkscape:connector-curvature="0"
     transform="scale(1.7789297,1.7789297)" /></svg>